<mxfile host="app.diagrams.net" modified="2023-11-21T00:46:21.028Z" agent="Mozilla/5.0 (Windows NT 10.0; Win64; x64) AppleWebKit/537.36 (KHTML, like Gecko) Chrome/119.0.0.0 Safari/537.36" version="22.1.3" etag="gyshR8vnZ7oWQ_s0cOnZ" type="github">
  <diagram name="페이지-1" id="12ja-q-08pHZc2xSjT3h">
    <mxGraphModel>
      <root>
        <mxCell id="0" />
        <mxCell id="1" parent="0" />
      </root>
    </mxGraphModel>
  </diagram>
</mxfile>
